<?xml version="1.0" encoding="UTF-8" standalone="no"?>
<svg
   xmlns:dc="http://purl.org/dc/elements/1.1/"
   xmlns:cc="http://creativecommons.org/ns#"
   xmlns:rdf="http://www.w3.org/1999/02/22-rdf-syntax-ns#"
   xmlns:svg="http://www.w3.org/2000/svg"
   xmlns="http://www.w3.org/2000/svg"
   xmlns:xlink="http://www.w3.org/1999/xlink"
   xmlns:sodipodi="http://sodipodi.sourceforge.net/DTD/sodipodi-0.dtd"
   xmlns:inkscape="http://www.inkscape.org/namespaces/inkscape"
   height="57.125999"
   width="57.125999"
   version="1.1"
   x="0px"
   y="0px"
   viewBox="0 0 57.126 57.125999"
   enable-background="new 0 0 100 100"
   xml:space="preserve"
   id="svg3749"
   sodipodi:docname="duck1.svg"
   inkscape:version="0.92.4 (5da689c313, 2019-01-14)"
   style="fill:#000000"
   inkscape:export-filename="C:\Users\Patrik\Desktop\duck1.png"
   inkscape:export-xdpi="215.10001"
   inkscape:export-ydpi="215.10001"><metadata
     id="metadata3755"><rdf:RDF><cc:Work
         rdf:about=""><dc:format>image/svg+xml</dc:format><dc:type
           rdf:resource="http://purl.org/dc/dcmitype/StillImage" /><dc:title></dc:title></cc:Work></rdf:RDF></metadata><defs
     id="defs3753"><linearGradient
       id="linearGradient4966"
       inkscape:collect="always"><stop
         id="stop4962"
         offset="0"
         style="stop-color:#f3bd53;stop-opacity:1" /><stop
         id="stop4964"
         offset="1"
         style="stop-color:#fedea1;stop-opacity:1" /></linearGradient><linearGradient
       inkscape:collect="always"
       id="linearGradient4944"><stop
         style="stop-color:#ffdb8d;stop-opacity:1;"
         offset="0"
         id="stop4940" /><stop
         style="stop-color:#ffffff;stop-opacity:1"
         offset="1"
         id="stop4942" /></linearGradient><inkscape:path-effect
       effect="bspline"
       id="path-effect4914"
       is_visible="true"
       weight="33.333333"
       steps="2"
       helper_size="0"
       apply_no_weight="true"
       apply_with_weight="true"
       only_selected="false" /><linearGradient
       inkscape:collect="always"
       xlink:href="#linearGradient4944"
       id="linearGradient4946"
       x1="11.973097"
       y1="23.093769"
       x2="54.055097"
       y2="23.093769"
       gradientUnits="userSpaceOnUse" /><linearGradient
       inkscape:collect="always"
       xlink:href="#linearGradient4966"
       id="linearGradient4954"
       x1="31.318472"
       y1="9.5853624"
       x2="17.699133"
       y2="33.433537"
       gradientUnits="userSpaceOnUse" /></defs><sodipodi:namedview
     pagecolor="#ffffff"
     bordercolor="#666666"
     borderopacity="1"
     objecttolerance="10"
     gridtolerance="10"
     guidetolerance="10"
     inkscape:pageopacity="0"
     inkscape:pageshadow="2"
     inkscape:window-width="1920"
     inkscape:window-height="1017"
     id="namedview3751"
     showgrid="false"
     showguides="false"
     inkscape:zoom="11.992531"
     inkscape:cx="24.116179"
     inkscape:cy="27.230258"
     inkscape:window-x="1912"
     inkscape:window-y="-8"
     inkscape:window-maximized="1"
     inkscape:current-layer="svg3749"
     fit-margin-top="2"
     fit-margin-left="2"
     fit-margin-right="2"
     fit-margin-bottom="2" /><path
     d="m 37.763097,42.52177 c -0.552,0 -1,0.448 -1,1 v 5.02 h -3.5 c -0.448,0 -0.946,0.209 -1.068,0.641 -0.122,0.431 0.175,0.801 0.333,1.036 0.158,0.236 0.557,0.782 0.009,3.351 -0.04,0.176 -0.033,0.364 0.029,0.546 0,0 0,0.001 0,0.001 0.007,0.02 0.014,0.039 0.022,0.058 0.097,0.235 0.273,0.413 0.486,0.517 0.063,0.031 0.129,0.055 0.196,0.071 0.079,0.02 0.16,0.03 0.242,0.03 0.102,0 0.205,-0.016 0.306,-0.048 0.021,-0.007 0.043,-0.015 0.064,-0.023 1.81,-0.699 3.467,-0.017 3.478,-0.013 0.309,0.135 0.666,0.105 0.948,-0.079 0.282,-0.184 0.453,-0.5 0.453,-0.837001 V 43.52277 c 0.002,-0.553 -0.446,-1.001 -0.998,-1.001 z"
     id="path3743"
     style="fill:#f09e48;fill-opacity:1;stroke:#000000;stroke-opacity:1;paint-order:normal"
     inkscape:connector-curvature="0" /><rect
     style="fill:#ffdb8d;fill-opacity:1;stroke:#efc9bc;stroke-width:2.47869778;stroke-linecap:round;stroke-linejoin:round;stroke-miterlimit:4;stroke-dasharray:none;stroke-opacity:1;paint-order:normal"
     id="rect4920"
     width="4.4968195"
     height="1.097241"
     x="7.1741691"
     y="21.086643" /><path
     d="m 29.513097,42.52177 c -0.552,0 -1,0.448 -1,1 v 5.02 h -3.5 c -0.448,0 -0.946,0.209 -1.068,0.641 -0.122,0.431 0.175,0.801 0.333,1.036 0.158,0.236 0.557,0.782 0.009,3.351 -0.04,0.176 -0.033,0.364 0.029,0.546 0,0 0,0.001 0,0.001 0.007,0.02 0.014,0.039 0.022,0.058 0.097,0.235 0.273,0.413 0.486,0.517 0.063,0.031 0.129,0.055 0.196,0.071 0.079,0.02 0.16,0.03 0.242,0.03 0.102,0 0.205,-0.016 0.306,-0.048 0.021,-0.007 0.043,-0.015 0.064,-0.023 1.81,-0.699 3.467,-0.017 3.478,-0.013 0.309,0.135 0.666,0.105 0.948,-0.079 0.282,-0.184 0.453,-0.5 0.453,-0.837001 V 43.52277 c 0.002,-0.553 -0.446,-1.001 -0.998,-1.001 z"
     id="path3741"
     style="fill:#f09e48;fill-opacity:1;stroke:#000000;stroke-opacity:1;paint-order:normal"
     inkscape:connector-curvature="0" /><path
     stroke-miterlimit="10"
     d="m 12.471097,17.33377 c -1.133,0 -0.382,0.013 -1.514,0.045 -0.943,0.027 -2.0209995,-0.014 -2.7369995,-0.718 -0.259,-0.255 -0.521,-0.473 -0.808,-0.707 -1.048,-0.853 -3.0430004,-0.785 -3.9680004,0.201 -0.741,0.79 -1.018,2.049 -0.522,3.044 0.423,0.847 1.433,0.988 2.266,1.153 1.2930004,0.256 2.6200004,0.345 3.9350004,0.39 1.7389995,0.06 1.6109995,0.037 3.3489995,-0.075"
     id="path3745"
     style="fill:#efc9bc;fill-opacity:1;stroke:#000000;stroke-width:1;stroke-linecap:round;stroke-linejoin:round;stroke-miterlimit:10;stroke-dasharray:none;stroke-opacity:1"
     inkscape:connector-curvature="0" /><path
     stroke-miterlimit="10"
     d="m 5.5061686,20.819869 c 0,0 -0.534737,2.390667 3.4342454,2.944716 1.016481,0.141896 2.328361,0.163327 4.020279,-0.0067"
     id="path3747"
     style="fill:none;fill-opacity:1;stroke:#000000;stroke-width:1.08025813;stroke-linecap:butt;stroke-linejoin:round;stroke-miterlimit:10;stroke-dasharray:none;stroke-opacity:1;paint-order:normal"
     inkscape:connector-curvature="0"
     sodipodi:nodetypes="csc"
     inkscape:transform-center-x="2.7288383"
     inkscape:transform-center-y="0.89122813" /><path
     stroke-miterlimit="10"
     d="m 53.555097,28.41677 c 0,-2.5 0,0.333 0,-4.167 0,-4.5 -2.417,-4.625 -3.958,-4.625 -1.541,0 -4.542,0 -9.042,0 -4.5,0 -4.162,-4.998 -4.162,-4.998 0,-6.6060023 -5.355,-11.9600023 -11.96,-11.9600023 v 0 c -6.606,0 -11.96,5.355 -11.96,11.9600023 v 16.934 c 0,6.606 5.355,11.96 11.96,11.96 v 0 c 0,0 8.696,0 12.498,0 3.802,0 16.624,-3.312 16.624,-15.104 z"
     id="path3737"
     style="fill:url(#linearGradient4954);fill-opacity:1;stroke:#000000;stroke-width:1;stroke-miterlimit:10;stroke-dasharray:none;stroke-opacity:1"
     inkscape:connector-curvature="0" /><circle
     cx="20.236578"
     cy="10.920028"
     r="1.302"
     id="circle3735" /><path
     stroke-miterlimit="10"
     d="m 35.388097,25.58377 h 9.833 c 0,0 0.5,5.75 -4.914,5.917 0,0 -1.086,2.917 -4.169,2.292"
     id="path3739"
     style="fill:none;stroke:#000000;stroke-width:1;stroke-linecap:round;stroke-linejoin:round;stroke-miterlimit:10;stroke-dasharray:none;stroke-opacity:1"
     inkscape:connector-curvature="0" /></svg>